Coordinates
version=1
nRows=13
nColumns=22
inDegrees=yes

Units are S.I. units (second, meters, Newtons, ...)
If the header above contains a line with 'inDegrees', this indicates whether rotational values are in degrees (yes) or radians (no).

endheader
time	pelvis_tilt	pelvis_list	pelvis_rotation	pelvis_tx	pelvis_ty	pelvis_tz	hip_flexion_r	hip_adduction_r	hip_rotation_r	knee_angle_r	ankle_angle_r	subtalar_angle_r	hip_flexion_l	hip_adduction_l	hip_rotation_l	knee_angle_l	ankle_angle_l	subtalar_angle_l	lumbar_extension	lumbar_bending	lumbar_rotation
      0.01000000	     -5.01762556	     -2.73853727	     -0.61842570	     -1.15303692	      0.95645381	      0.42165896	      7.70063242	      2.24093650	     -5.59479884	    -11.82690892	     10.62870211	     -1.73269259	      7.26535208	     -4.19855484	     -8.36244842	    -14.13507307	     11.26274628	     -4.61901661	     -1.10138042	      1.31469104	      0.71554171
      0.02000000	     -5.01799776	     -2.73696772	     -0.62792128	     -1.15312318	      0.95645499	      0.42161165	      7.70427346	      2.23611667	     -5.59414891	    -11.82071668	     10.62837878	     -1.73486173	      7.26725683	     -4.19364322	     -8.36474761	    -14.13247919	     11.26281950	     -4.61968699	     -1.10441149	      1.32467335	      0.71419057
      0.03000000	     -5.03187845	     -2.73311568	     -0.65730324	     -1.15317970	      0.95644356	      0.42159709	      7.71391503	      2.23455671	     -5.55396594	    -11.79992443	     10.61534470	     -1.75827932	      7.26213416	     -4.18907706	     -8.40845323	    -14.09734896	     11.26224255	     -4.62882992	     -1.08410158	      1.33208263	      0.72267570
      0.04000000	     -5.03081802	     -2.73103758	     -0.67015576	     -1.15327211	      0.95644759	      0.42154403	      7.71792902	      2.22876427	     -5.55205970	    -11.79606779	     10.61486517	     -1.76005955	      7.26331894	     -4.18340817	     -8.40929087	    -14.09777504	     11.26131473	     -4.62907023	     -1.08776757	      1.34413492	      0.72203673
      0.05000000	     -5.03686610	     -2.72021859	     -0.71870267	     -1.15335330	      0.95644918	      0.42155248	      7.73457124	      2.22186521	     -5.47447112	    -11.79964984	     10.59679510	     -1.79595492	      7.25353274	     -4.17430667	     -8.47010920	    -14.07398153	     11.24707388	     -4.63871359	     -1.08092239	      1.34512664	      0.75801064
      0.06000000	     -5.03627121	     -2.71849498	     -0.72918728	     -1.15344986	      0.95645243	      0.42150945	      7.73981941	      2.21758084	     -5.47431883	    -11.79591197	     10.59705020	     -1.79726368	      7.25516011	     -4.16983884	     -8.47160114	    -14.07128472	     11.24713175	     -4.63893049	     -1.08709038	      1.35458716	      0.75232473
      0.07000000	     -5.03365192	     -2.71464323	     -0.74255379	     -1.15352152	      0.95646020	      0.42146835	      7.74895019	      2.21115103	     -5.45963592	    -11.80741963	     10.59247027	     -1.80329569	      7.24739796	     -4.16353083	     -8.48856797	    -14.05857919	     11.24609134	     -4.64055315	     -1.09036457	      1.36438349	      0.72296865
      0.08000000	     -5.03026670	     -2.70918601	     -0.75384488	     -1.15360236	      0.95646783	      0.42142788	      7.75614634	      2.20317775	     -5.44683241	    -11.81576135	     10.58909059	     -1.80941672	      7.24339684	     -4.15518253	     -8.50238570	    -14.05157326	     11.24215640	     -4.64186281	     -1.09806464	      1.37168521	      0.70383461
      0.09000000	     -5.02963192	     -2.70713507	     -0.76113569	     -1.15369056	      0.95647128	      0.42138549	      7.76167543	      2.19856481	     -5.44466636	    -11.81395900	     10.58892464	     -1.81072440	      7.24593121	     -4.15001878	     -8.50529111	    -14.04819979	     11.24125973	     -4.64207739	     -1.10707838	      1.37975569	      0.69687272
      0.10000000	     -5.02270791	     -2.70083387	     -0.76804017	     -1.15376430	      0.95648160	      0.42134903	      7.77067073	      2.19030521	     -5.42389538	    -11.83504035	     10.58499511	     -1.81670315	      7.23971316	     -4.14135281	     -8.52349994	    -14.04283663	     11.23552048	     -4.64386365	     -1.11924081	      1.38459169	      0.65122427
      0.11000000	     -5.01839197	     -2.69502749	     -0.77383061	     -1.15384222	      0.95648678	      0.42130811	      7.77724445	      2.18200406	     -5.41160323	    -11.84521948	     10.58538750	     -1.82300149	      7.23867538	     -4.13263290	     -8.53540475	    -14.04078276	     11.22997429	     -4.64600297	     -1.13166115	      1.38981322	      0.62001861
      0.12000000	     -5.01588737	     -2.69088066	     -0.77871210	     -1.15391496	      0.95648861	      0.42126584	      7.78436407	      2.17525324	     -5.40156035	    -11.85378060	     10.58607396	     -1.82827368	      7.23877372	     -4.12554279	     -8.54462228	    -14.03804017	     11.22638625	     -4.64820169	     -1.14207838	      1.39768045	      0.58704580
      0.13000000	     -5.01563123	     -2.68778158	     -0.78123628	     -1.15399029	      0.95648633	      0.42122444	      7.79313150	      2.16983889	     -5.39243192	    -11.86088442	     10.58674438	     -1.83310274	      7.24086115	     -4.11976599	     -8.55311874	    -14.03362137	     11.22376738	     -4.65053296	     -1.15188051	      1.40634227	      0.55070747
